<?xml version="1.0" standalone="no"?>
<!DOCTYPE svg PUBLIC "-//W3C//DTD SVG 20010904//EN"
 "http://www.w3.org/TR/2001/REC-SVG-20010904/DTD/svg10.dtd">
<svg version="1.0" xmlns="http://www.w3.org/2000/svg"
 width="800.000000pt" height="800.000000pt" viewBox="0 0 800.000000 800.000000"
 preserveAspectRatio="xMidYMid meet">

<g transform="translate(0.000000,800.000000) scale(0.100000,-0.100000)"
fill="#000000" stroke="none">
<path d="M3075 5862 c-60 -20 -135 -90 -135 -126 0 -34 26 -93 45 -100 28 -10
237 -7 230 4 -4 6 4 6 22 -1 28 -11 626 -5 644 7 5 3 9 14 9 25 0 20 -38 41
-69 38 -59 -5 -81 2 -96 31 -22 42 -50 54 -132 56 -40 0 -79 6 -86 12 -33 28
-98 42 -144 32 -39 -9 -52 -8 -89 10 -59 29 -137 33 -199 12z m165 -73 c34
-18 52 -21 108 -16 50 4 74 1 97 -11 19 -10 62 -16 122 -18 51 -1 97 -6 103
-9 32 -20 -14 -26 -215 -30 -352 -8 -398 -7 -413 8 -22 23 4 64 52 81 58 21
99 19 146 -5z"/>
<path d="M4531 5778 c-4 -13 -11 -39 -15 -59 -4 -21 -12 -41 -19 -46 -18 -14
-49 -24 -43 -14 3 5 -21 6 -54 4 l-60 -5 -15 37 c-12 28 -21 36 -38 33 -17 -2
-23 -11 -25 -35 -2 -18 2 -41 8 -53 9 -17 5 -27 -30 -69 -39 -46 -44 -49 -79
-44 -30 4 -39 2 -45 -12 -8 -21 9 -44 41 -56 20 -7 23 -16 23 -58 l0 -49 -65
-7 c-67 -8 -83 -21 -69 -59 6 -14 16 -16 63 -11 31 3 65 8 77 10 15 3 24 -2
32 -20 6 -13 27 -42 47 -63 31 -35 34 -43 25 -67 -15 -40 -12 -73 8 -84 26
-14 49 4 56 45 5 23 12 34 20 31 7 -3 38 -8 68 -12 66 -8 101 5 96 38 -3 19
-11 23 -63 28 -97 9 -162 55 -205 145 -48 99 -1 214 105 254 43 16 118 14 153
-4 76 -39 142 -123 142 -179 0 -34 23 -51 49 -38 25 14 35 45 22 70 -17 31
-13 55 12 66 13 6 23 21 25 38 4 32 -8 35 -86 22 -14 -2 -26 3 -32 15 -6 10
-23 27 -39 36 -36 21 -50 51 -40 84 4 14 7 44 8 68 1 39 -1 42 -24 42 -17 0
-28 -7 -34 -22z"/>
<path d="M4918 5441 c-49 -31 -78 -74 -78 -114 0 -31 -10 -39 -93 -67 -102
-36 -126 -78 -57 -102 17 -5 35 -18 40 -28 12 -22 13 -140 2 -140 -4 0 -32 12
-61 26 -44 23 -62 26 -110 21 -32 -2 -79 -14 -104 -25 -57 -25 -128 -95 -152
-150 -11 -23 -22 -42 -25 -42 -4 0 -14 24 -23 53 -26 82 -50 112 -112 142 -49
25 -63 27 -117 21 -70 -7 -136 -41 -168 -86 -29 -41 -40 -38 -40 13 0 54 -13
67 -66 67 -46 0 -192 -42 -236 -68 -42 -25 -37 -58 11 -78 24 -9 41 -24 45
-37 10 -36 7 -264 -4 -291 -7 -20 -17 -26 -39 -26 -15 0 -33 6 -38 13 -5 6
-17 73 -27 147 -21 167 -46 246 -89 287 -37 36 -118 63 -187 63 -92 0 -208
-32 -252 -68 -16 -14 -18 -13 -18 4 0 27 37 124 58 154 10 14 39 36 65 49 56
27 71 62 41 92 -16 15 -39 19 -129 23 -60 3 -127 2 -149 -2 -77 -14 -79 -79
-3 -115 21 -10 41 -25 44 -33 3 -9 -12 -66 -34 -127 -22 -62 -49 -137 -58
-167 -10 -30 -24 -69 -32 -87 -7 -17 -13 -36 -13 -43 0 -6 -5 -20 -11 -31 -13
-26 -35 -10 -44 32 -4 18 -13 29 -23 29 -13 0 -14 2 -4 9 11 7 5 38 -33 162
-26 85 -50 172 -52 194 -4 38 -2 42 34 65 29 19 39 33 41 58 5 46 -20 52 -211
51 -125 0 -167 -3 -184 -15 -38 -24 -28 -75 18 -100 34 -17 54 -53 64 -111 6
-36 -2 -67 -45 -195 -54 -162 -76 -206 -91 -191 -5 5 -19 42 -30 82 l-20 72
23 19 c19 15 21 22 12 37 -6 10 -22 19 -35 21 -22 3 -27 14 -52 101 -37 133
-36 154 8 180 42 24 47 61 13 85 -33 23 -403 23 -436 0 -41 -29 -25 -77 39
-109 23 -12 49 -42 49 -57 0 -2 -26 -2 -57 0 -76 3 -125 -24 -175 -98 -31 -45
-37 -64 -38 -106 0 -73 10 -77 203 -71 86 2 160 1 165 -2 5 -3 39 -91 76 -196
73 -205 84 -226 121 -251 32 -21 106 -20 140 2 35 23 51 58 121 262 43 125 63
172 73 170 10 -2 26 -41 43 -103 16 -55 37 -125 47 -156 16 -46 18 -76 14
-165 -5 -118 -13 -151 -50 -201 -12 -17 -23 -38 -23 -46 0 -23 40 -67 61 -67
49 0 148 72 149 108 0 7 6 19 13 26 10 11 17 -7 36 -93 13 -58 35 -153 49
-211 41 -175 63 -283 69 -333 4 -39 9 -48 28 -53 13 -3 32 -4 42 -2 34 6 29
44 -37 298 -5 19 -14 60 -20 90 -7 30 -20 91 -30 135 -61 261 -72 317 -60 325
8 6 78 194 121 328 25 78 37 102 50 102 10 0 21 -4 24 -10 8 -13 58 -13 89 1
15 7 35 33 50 65 27 58 48 74 95 74 47 0 71 -30 71 -89 0 -28 -4 -52 -8 -55
-5 -3 -48 -11 -98 -19 -201 -33 -299 -123 -281 -259 4 -32 1 -47 -14 -66 -23
-30 -25 -80 -3 -89 10 -4 30 9 57 35 23 23 68 53 101 68 50 23 68 26 125 22
54 -4 76 -11 123 -41 31 -20 74 -58 95 -84 55 -69 61 -72 134 -73 46 0 70 -5
79 -15 19 -23 4 -25 -195 -27 l-180 -3 -3 -27 c-3 -22 2 -29 20 -33 13 -3 149
-4 303 -3 l280 3 0 30 c0 29 -1 30 -57 33 -52 3 -60 6 -84 37 -31 41 -97 75
-150 76 l-39 1 40 10 c22 5 123 9 225 8 196 -1 232 6 238 46 2 13 -10 32 -32
52 -22 19 -40 48 -47 74 -13 49 -7 208 10 251 18 45 59 77 101 77 72 0 92 -49
106 -265 6 -86 4 -102 -10 -114 -8 -7 -13 -18 -9 -25 3 -6 2 -8 -2 -3 -11 10
-45 -22 -45 -43 0 -33 43 -49 135 -52 l86 -3 -75 -54 c-41 -29 -90 -67 -108
-83 -18 -17 -47 -37 -65 -44 -18 -8 -37 -23 -43 -34 -6 -11 -30 -34 -52 -51
-23 -16 -67 -54 -99 -83 -32 -30 -71 -64 -88 -77 -17 -12 -28 -26 -25 -31 3
-4 -2 -8 -10 -8 -8 0 -23 -8 -33 -19 -31 -31 -105 -81 -122 -81 -9 0 -31 15
-50 33 -19 17 -49 43 -67 57 -47 37 -308 253 -314 259 -3 4 -21 14 -40 23 -19
9 -48 22 -63 29 -35 16 -129 18 -134 3 -2 -7 12 -22 32 -34 53 -33 70 -62 56
-101 -23 -67 22 -155 100 -194 61 -32 73 -47 65 -89 -5 -29 -3 -37 13 -45 12
-7 104 -11 239 -11 l219 0 42 30 c23 17 50 38 60 48 10 9 32 27 49 40 16 12
40 33 53 46 13 13 35 29 49 36 33 17 102 72 170 135 30 28 89 77 130 107 41
31 107 80 145 110 148 113 275 183 313 173 l25 -6 -31 -32 c-55 -59 -57 -155
-4 -221 24 -31 50 -47 126 -77 27 -11 68 -28 90 -38 66 -28 117 -47 181 -67
33 -9 65 -21 70 -24 6 -4 42 -20 80 -35 87 -36 175 -95 198 -134 20 -34 22
-90 5 -113 -15 -19 -75 -46 -174 -77 -94 -31 -154 -83 -154 -135 0 -54 68
-114 115 -102 14 4 25 2 25 -3 0 -20 149 -44 273 -45 20 0 37 -3 37 -6 0 -4
44 -12 98 -19 91 -12 152 -27 212 -53 109 -45 119 -65 60 -119 -22 -20 -41
-35 -43 -33 -2 2 -12 -5 -22 -16 -15 -17 -16 -20 -3 -20 9 0 18 -9 21 -20 7
-27 -19 -26 -33 1 -11 20 -12 20 -32 2 -11 -10 -24 -26 -29 -35 -13 -25 6 -58
34 -58 22 0 147 94 147 111 0 5 7 9 16 9 9 0 47 24 83 54 64 52 143 109 226
162 52 34 65 51 65 89 0 27 -12 40 -101 110 -56 44 -105 79 -110 78 -4 -2 -6
3 -3 11 4 12 -83 96 -100 96 -3 0 -14 8 -24 18 -10 9 -54 50 -98 90 -43 41
-99 93 -124 117 -42 39 -72 65 -174 148 -21 18 -45 38 -53 46 -32 31 -149 103
-173 106 -14 2 -27 4 -30 4 -3 1 0 5 7 9 8 5 -19 32 -78 77 -50 39 -102 79
-115 90 l-25 20 30 16 c23 13 33 14 49 5 10 -6 38 -21 61 -34 23 -12 39 -26
37 -31 -3 -4 1 -16 8 -27 12 -15 18 -16 40 -6 14 6 54 11 89 11 61 -1 127 20
127 39 0 17 103 110 148 135 52 28 149 48 173 35 8 -4 40 -20 72 -34 95 -44
154 -125 141 -192 l-6 -27 -116 -3 c-64 -1 -219 -2 -344 -1 -208 0 -228 -2
-237 -18 -6 -12 -6 -25 1 -36 9 -17 34 -18 370 -16 281 2 363 5 373 16 18 18
36 108 29 141 -18 74 -53 121 -130 173 l-77 51 6 84 c6 88 23 133 58 158 31
21 59 5 59 -35 0 -40 39 -79 80 -79 75 0 124 58 123 146 -1 96 -49 150 -132
148 -61 -2 -102 -23 -142 -74 -18 -22 -36 -40 -41 -40 -4 0 -8 20 -8 45 0 35
-4 47 -21 56 -29 15 -92 6 -196 -28 l-83 -27 -71 34 c-64 32 -80 35 -153 34
-59 0 -94 -6 -128 -22 -78 -34 -135 -79 -170 -133 l-33 -52 -3 34 c-2 19 -8
40 -14 46 -7 9 -7 13 0 13 6 0 10 54 9 149 0 109 3 154 13 165 11 14 49 16
264 16 261 0 276 2 276 41 0 32 18 31 -355 30 -143 0 -263 3 -268 8 -9 9 19
43 50 59 34 18 100 14 144 -9 35 -17 52 -20 113 -14 44 4 82 2 100 -4 39 -15
66 -5 66 24 0 37 -70 60 -157 51 -57 -6 -75 -3 -110 14 -65 31 -147 28 -205
-9z m-1988 -251 c0 -5 -5 -10 -11 -10 -5 0 -7 5 -4 10 3 6 8 10 11 10 2 0 4
-4 4 -10z m-610 -39 c0 -6 -4 -13 -10 -16 -5 -3 -10 1 -10 9 0 9 5 16 10 16 6
0 10 -4 10 -9z m581 -54 c-8 -8 -11 -7 -11 4 0 9 3 19 7 23 4 4 9 2 11 -4 3
-7 -1 -17 -7 -23z m-1131 -79 c19 -12 47 -21 62 -20 16 1 38 -8 56 -23 16 -14
41 -25 54 -25 32 0 66 -24 48 -35 -7 -4 -111 -9 -231 -12 -207 -3 -219 -3
-219 15 0 25 44 83 78 104 39 24 110 22 152 -4z m1910 -32 c0 -3 -4 -8 -10
-11 -5 -3 -10 -1 -10 4 0 6 5 11 10 11 6 0 10 -2 10 -4z m1001 -71 c20 -13 48
-89 55 -149 4 -34 13 -60 20 -63 8 -3 14 -10 14 -15 0 -6 -6 -8 -14 -5 -10 4
-15 -8 -19 -46 -4 -28 -10 -54 -14 -58 -5 -3 -41 -9 -81 -12 -71 -4 -73 -4
-87 23 -22 42 -38 156 -32 226 3 39 0 67 -7 74 -8 9 -6 11 12 5 13 -4 22 -2
22 5 0 6 14 17 32 24 30 13 69 9 99 -9z m661 4 c24 -13 60 -91 52 -113 -11
-29 -150 -59 -165 -35 -21 33 -4 122 28 147 21 15 58 16 85 1z m-1628 -95 c4
-10 1 -14 -6 -12 -15 5 -23 28 -10 28 5 0 13 -7 16 -16z m1886 -193 c-6 -14
-40 -45 -75 -68 -56 -37 -72 -43 -118 -43 -85 0 -149 50 -152 117 -1 12 2 20
5 19 13 -8 303 44 323 57 21 14 22 13 25 -20 2 -20 -2 -47 -8 -62z m-2388 47
c21 -18 29 -68 17 -113 -10 -36 -12 -37 -47 -31 -118 19 -117 19 -120 55 -4
41 12 75 42 89 30 15 89 14 108 0z m-572 -28 c0 -5 -2 -10 -4 -10 -3 0 -8 5
-11 10 -3 6 -1 10 4 10 6 0 11 -4 11 -10z m2379 -130 c2 -32 -28 16 -33 55
l-6 40 19 -40 c11 -22 20 -47 20 -55z m-99 48 c0 -5 -7 -8 -15 -8 -15 0 -20
21 -8 33 7 7 23 -11 23 -25z m310 -18 c0 -5 -2 -10 -4 -10 -3 0 -8 5 -11 10
-3 6 -1 10 4 10 6 0 11 -4 11 -10z m-1435 -30 c3 -5 2 -10 -4 -10 -5 0 -13 5
-16 10 -3 6 -2 10 4 10 5 0 13 -4 16 -10z m-1185 -110 c11 -52 11 -63 -4 -84
-9 -14 -25 -49 -37 -78 -22 -56 -48 -88 -74 -88 -20 0 -19 4 9 48 29 45 44 96
49 178 2 33 7 66 11 72 17 27 34 10 46 -48z m3027 -496 c-3 -3 -12 -4 -19 -1
-8 3 -5 6 6 6 11 1 17 -2 13 -5z m-152 -244 c3 -5 1 -10 -4 -10 -6 0 -11 5
-11 10 0 6 2 10 4 10 3 0 8 -4 11 -10z m-355 -210 c0 -5 -5 -10 -11 -10 -5 0
-7 5 -4 10 3 6 8 10 11 10 2 0 4 -4 4 -10z m645 -370 c3 -5 2 -10 -4 -10 -5 0
-13 5 -16 10 -3 6 -2 10 4 10 5 0 13 -4 16 -10z"/>
<path d="M5607 5324 c-14 -15 -6 -43 14 -49 23 -8 41 9 36 35 -2 16 -38 26
-50 14z"/>
<path d="M1820 4103 c-18 -17 -34 -46 -42 -76 -11 -42 -10 -49 5 -65 15 -15
39 -17 180 -17 124 0 161 3 160 13 -2 6 1 12 6 12 11 0 5 48 -9 76 -14 26 -50
44 -88 44 -15 0 -45 9 -67 20 -57 29 -108 26 -145 -7z m120 -58 c8 -10 31 -15
66 -15 57 0 76 -13 45 -29 -19 -10 -183 -7 -201 4 -5 3 -5 16 2 30 9 19 19 25
43 25 18 0 38 -7 45 -15z"/>
<path d="M2405 4003 c-16 -9 -32 -19 -35 -22 -10 -12 -165 -128 -185 -139 -29
-15 -233 -165 -275 -201 -19 -17 -62 -56 -94 -86 -33 -30 -63 -55 -68 -55 -4
0 -15 -14 -23 -31 -23 -43 -20 -363 3 -385 8 -9 22 -13 31 -11 9 3 54 15 101
28 60 16 94 30 115 51 l30 29 -27 20 c-38 28 -37 68 0 96 31 23 129 56 142 48
9 -6 122 20 160 37 47 20 54 25 73 50 42 56 -14 150 -97 163 -56 9 -118 27
-133 37 -27 21 7 64 102 128 39 26 81 58 93 70 13 13 57 49 98 81 56 45 74 65
74 84 0 21 -5 25 -27 25 -16 -1 -41 -8 -58 -17z"/>
<path d="M3860 3748 c-24 -4 -53 -14 -65 -22 -24 -16 -40 -69 -36 -121 3 -31
40 -115 51 -115 3 0 6 -9 7 -19 1 -10 10 -39 21 -63 11 -23 32 -72 48 -107
l28 -64 -24 -16 c-13 -9 -50 -42 -82 -73 -32 -32 -67 -58 -78 -58 -21 0 -47
35 -75 100 -37 87 -41 90 -106 90 -74 0 -79 -10 -49 -90 12 -32 20 -64 18 -70
-7 -23 -55 30 -82 92 -15 35 -32 73 -38 86 -18 36 2 46 108 50 116 4 127 -1
173 -91 26 -50 39 -65 55 -64 31 1 46 16 46 47 0 23 5 30 30 35 21 5 32 14 36
32 9 35 -13 53 -69 55 -34 2 -49 7 -52 19 -11 33 -67 49 -167 49 -135 -1 -238
-16 -261 -39 -19 -19 -19 -21 -2 -78 10 -32 25 -71 32 -87 18 -34 6 -50 -25
-33 -17 8 -43 57 -91 167 -75 171 -86 206 -71 215 6 4 124 7 263 7 139 1 260
5 270 10 20 10 24 63 5 74 -6 4 -131 7 -276 6 -309 -2 -326 -6 -348 -79 -13
-46 -5 -107 20 -146 8 -12 17 -40 21 -62 4 -21 13 -52 21 -67 32 -61 7 -78
-57 -40 -24 14 -38 27 -33 29 6 2 9 15 6 28 -3 17 1 27 12 31 23 9 22 70 -1
79 -10 3 -125 6 -256 5 -203 0 -241 -3 -255 -16 -17 -18 -25 -83 -11 -100 6
-8 -7 -11 -45 -11 -64 0 -100 -24 -136 -91 -29 -54 -20 -96 30 -130 29 -19 45
-22 113 -21 78 2 80 2 128 45 60 53 53 62 -62 67 -98 4 -122 13 -94 34 14 9
58 13 165 13 154 0 170 4 170 47 0 32 -28 43 -109 43 -56 0 -71 3 -71 15 0 12
19 15 108 16 59 1 126 2 149 2 53 1 69 -13 88 -78 10 -36 24 -60 43 -73 32
-23 132 -54 132 -41 0 5 5 9 10 9 6 0 10 -6 10 -13 0 -14 147 -70 161 -61 5 3
9 1 9 -3 0 -12 76 -49 150 -72 36 -11 95 -31 132 -45 102 -37 150 -42 190 -18
37 22 88 36 88 25 0 -5 -17 -27 -38 -51 -53 -60 -74 -124 -74 -225 0 -78 19
-177 44 -233 10 -20 9 -27 -2 -34 -23 -14 -41 4 -68 66 -23 53 -26 74 -28 204
-1 80 -3 149 -3 153 -1 11 -48 30 -256 102 -99 35 -207 75 -240 90 -33 15
-100 41 -150 58 -82 29 -100 31 -208 30 -98 -1 -126 -5 -162 -23 -85 -41 -151
-144 -170 -265 -14 -88 -9 -162 17 -250 14 -47 72 -140 99 -159 18 -12 12 -14
-51 -20 -81 -8 -106 -3 -115 25 -4 10 -10 19 -15 19 -20 0 -40 -13 -40 -26 0
-10 -6 -8 -20 6 -22 22 -55 26 -66 8 -5 -7 -20 3 -43 29 -48 54 -94 77 -142
70 -55 -7 -88 -36 -133 -118 -15 -26 -92 -20 -112 9 -10 14 -26 22 -44 22 -28
0 -60 -22 -60 -41 0 -5 -17 -9 -39 -9 -45 0 -66 -19 -57 -54 7 -29 32 -36 111
-31 33 2 485 6 1005 9 520 4 1116 9 1325 11 209 3 706 8 1105 11 857 7 968 8
974 14 2 3 7 17 11 32 10 37 -17 48 -120 50 l-84 1 -25 53 c-16 34 -36 59 -55
69 -33 17 -128 20 -177 6 -32 -9 -123 -97 -124 -118 0 -7 -8 -13 -19 -13 -10
0 -32 -3 -50 -6 -26 -6 -32 -3 -40 18 -18 49 -88 53 -132 8 -27 -27 -36 -29
-85 -27 -52 2 -65 9 -44 22 18 11 40 70 54 144 13 68 13 80 -5 150 -10 41 -26
85 -35 99 -10 15 -12 27 -6 35 15 18 54 166 54 203 0 34 -14 55 -44 67 -9 3
-26 28 -38 55 -16 36 -30 53 -56 65 -39 19 -90 22 -129 7 -30 -11 -85 -68 -85
-87 0 -18 -10 -16 -65 8 -26 11 -58 19 -71 16 -13 -2 -24 0 -24 4 0 5 -7 9
-15 9 -8 0 -15 6 -15 14 0 7 -12 35 -26 61 -25 44 -26 49 -14 86 11 32 20 41
43 46 17 4 32 14 34 25 6 20 18 24 28 7 10 -16 33 21 38 62 8 72 -34 119 -109
119 -40 0 -91 -29 -98 -55 -13 -51 14 -69 59 -39 32 21 70 15 70 -11 0 -13
-10 -22 -30 -28 -16 -5 -46 -17 -65 -27 l-36 -18 -28 61 c-44 94 -76 141 -113
167 -31 22 -42 23 -166 21 -73 -1 -143 -2 -157 -1 -127 5 -337 4 -370 -2z
m296 -96 c18 -10 17 -11 -8 -21 -19 -7 -28 -18 -28 -33 0 -38 12 -46 85 -52
82 -8 120 6 120 43 0 23 -11 34 -49 46 -68 21 144 44 220 23 33 -9 33 -8 129
-213 31 -66 60 -128 65 -137 18 -32 11 -36 -69 -37 -67 -1 -86 3 -126 25 -42
24 -53 26 -113 20 -49 -5 -79 -15 -113 -37 -47 -30 -65 -36 -54 -19 4 6 -30 9
-92 8 -54 -1 -107 3 -116 9 -16 8 -154 301 -162 344 -8 39 15 45 186 43 58 -1
114 -6 125 -12z m-316 -102 c0 -5 -2 -10 -4 -10 -3 0 -8 5 -11 10 -3 6 -1 10
4 10 6 0 11 -4 11 -10z m877 -126 c-3 -3 -12 -4 -19 -1 -8 3 -5 6 6 6 11 1 17
-2 13 -5z m-1242 -54 c3 -5 2 -10 -4 -10 -5 0 -13 5 -16 10 -3 6 -2 10 4 10 5
0 13 -4 16 -10z m980 -160 c26 -29 22 -80 -10 -107 -27 -23 -44 -22 -80 6 -17
13 -19 23 -14 55 10 63 66 88 104 46z m720 0 c30 -33 22 -80 -19 -115 -20 -16
-36 -35 -36 -42 0 -7 -7 -10 -15 -7 -8 4 -15 10 -15 16 0 5 4 7 9 3 23 -14 20
18 -3 36 -49 38 -25 129 33 129 15 0 36 -9 46 -20z m-282 -25 c-6 -17 -25 -15
-31 3 -2 7 5 12 17 12 14 0 19 -5 14 -15z m-38 -25 c11 -4 42 -16 68 -25 52
-18 55 -21 90 -75 15 -22 38 -40 65 -50 53 -20 107 -81 94 -107 -6 -10 -15
-40 -21 -68 -7 -27 -13 -50 -14 -51 -1 -1 -152 -5 -334 -8 -280 -5 -333 -4
-333 8 0 8 6 16 13 19 8 3 128 6 268 6 270 2 289 5 275 49 -4 12 -21 30 -39
41 -40 24 -73 61 -82 92 -8 24 -140 159 -156 159 -4 0 -6 6 -3 14 6 15 69 13
109 -4z m-606 -5 c6 -3 11 -15 11 -26 0 -13 4 -18 12 -13 8 5 9 2 5 -10 -4
-10 1 -23 11 -34 92 -87 237 -147 202 -83 -8 16 -4 26 24 57 19 21 37 53 41
71 5 29 9 33 28 28 55 -16 110 -48 149 -88 90 -90 115 -135 86 -153 -6 -4 -96
-7 -200 -6 -207 2 -216 4 -309 74 -119 90 -197 118 -326 118 -69 0 -94 3 -91
12 9 25 56 48 118 56 72 9 223 8 239 -3z m-598 -118 c-8 -8 -11 -5 -11 9 0 27
14 41 18 19 2 -9 -1 -22 -7 -28z m-785 -9 c13 -13 37 -43 53 -68 108 -168 38
-445 -121 -475 -49 -10 -122 43 -158 115 -27 53 -35 100 -33 193 2 110 45 199
120 248 37 25 106 18 139 -13z m1422 -67 c3 -8 -1 -12 -9 -9 -7 2 -15 10 -17
17 -3 8 1 12 9 9 7 -2 15 -10 17 -17z m-912 -43 c19 -30 31 -137 22 -198 -12
-95 -9 -100 68 -100 53 0 66 -3 70 -17 9 -30 36 -76 66 -115 l30 -38 -56 -1
c-31 0 -72 -1 -91 -1 -19 0 -89 1 -154 1 l-120 1 34 37 c18 20 46 68 62 107
26 66 28 80 27 204 -1 121 0 132 17 132 10 0 21 -6 25 -12z m703 -6 c37 -20
78 -87 96 -160 15 -60 2 -154 -30 -209 -28 -47 -87 -93 -113 -88 -10 2 -25 4
-34 4 -47 2 -127 117 -129 186 0 17 -3 24 -6 18 -2 -7 -12 -13 -20 -13 -10 0
-13 6 -9 16 3 9 6 22 6 31 0 9 6 13 15 9 11 -4 15 2 15 28 0 50 49 136 95 168
47 32 69 34 114 10z m-434 -52 c3 -5 1 -10 -4 -10 -6 0 -11 5 -11 10 0 6 2 10
4 10 3 0 8 -4 11 -10z m1300 -130 c3 -5 2 -10 -4 -10 -5 0 -13 5 -16 10 -3 6
-2 10 4 10 5 0 13 -4 16 -10z m-1770 -30 c3 -5 -1 -10 -9 -10 -9 0 -16 5 -16
10 0 6 4 10 9 10 6 0 13 -4 16 -10z m1905 -4 c0 -3 -4 -8 -10 -11 -5 -3 -10
-1 -10 4 0 6 5 11 10 11 6 0 10 -2 10 -4z m-411 -51 c7 -25 18 -45 23 -45 5 0
7 -8 3 -19 -7 -22 11 -67 39 -98 l19 -23 -109 -1 c-60 0 -139 -1 -175 -2 -66
-3 -66 -2 -56 20 6 13 13 23 17 23 4 0 11 10 15 23 4 12 8 24 9 27 3 8 14 62
21 103 l6 37 87 0 88 0 13 -45z m61 -15 c0 -5 -5 -10 -11 -10 -5 0 -7 5 -4 10
3 6 8 10 11 10 2 0 4 -4 4 -10z m354 -22 c-22 -70 -92 -138 -142 -138 -22 0
-79 33 -94 55 -10 14 -1 20 57 39 28 9 77 27 110 41 74 30 78 30 69 3z m836
-103 c20 -24 -3 -41 -49 -37 l-40 4 17 24 c19 27 54 31 72 9z m-3706 -50 c4
-11 -2 -15 -21 -15 -21 0 -24 2 -13 15 7 8 16 15 20 15 4 0 10 -7 14 -15z"/>
<path d="M4350 3521 c-34 -11 -91 -41 -105 -55 -34 -35 -56 -87 -50 -117 5
-21 11 -29 21 -25 9 3 12 1 9 -4 -10 -16 21 -11 35 5 7 8 20 30 29 48 17 34
70 66 112 67 14 0 42 -11 62 -24 19 -13 39 -21 43 -18 4 4 4 1 0 -6 -14 -24 3
-62 27 -62 74 0 56 115 -26 167 -42 26 -115 38 -157 24z"/>
<path d="M5073 2882 c-18 -3 -23 -10 -23 -33 0 -34 19 -46 49 -29 37 19 16 69
-26 62z"/>
<path d="M2762 2959 c-13 -5 -22 -17 -22 -29 0 -12 -12 -37 -27 -56 -37 -49
-43 -121 -13 -168 12 -20 32 -44 44 -54 13 -10 26 -27 30 -39 16 -50 64 -35
98 30 40 77 26 211 -29 283 -27 36 -49 45 -81 33z m50 -161 c5 -45 -1 -68 -17
-68 -25 0 -38 38 -25 71 16 39 37 37 42 -3z"/>
<path d="M4002 2828 c-16 -16 -15 -40 3 -64 18 -24 19 -34 1 -34 -30 0 -26
-62 5 -72 7 -2 7 -12 -1 -33 -16 -42 -5 -75 25 -75 73 0 97 147 43 266 -12 26
-55 33 -76 12z"/>
<path d="M6148 3139 c-15 -8 -18 -24 -18 -88 0 -61 -3 -80 -15 -85 -8 -3 -15
0 -16 7 -3 55 -16 77 -43 77 -35 0 -46 -26 -47 -112 -1 -62 -2 -68 -10 -41
-12 40 -21 46 -53 33 -21 -8 -26 -16 -26 -45 0 -64 32 -105 81 -105 24 0 25
-30 2 -31 -53 -3 -99 4 -106 17 -11 19 -46 18 -53 -1 -8 -19 -24 -19 -24 0 0
20 -57 48 -85 41 -13 -3 -33 -20 -45 -36 l-22 -31 -109 2 c-110 1 -139 -6
-139 -37 0 -8 9 -23 20 -34 21 -21 29 -21 402 -17 381 4 381 4 399 26 16 19
17 31 10 70 -1 2 -8 -2 -16 -9 -8 -6 -20 -8 -27 -4 -6 4 -34 7 -60 7 l-48 -1
0 68 c0 63 2 68 24 74 14 3 38 18 55 32 30 25 31 28 31 113 0 72 -3 91 -18
104 -21 20 -21 20 -44 6z"/>
<path d="M2034 3096 c-19 -13 -20 -23 -16 -125 3 -77 1 -111 -7 -111 -6 0 -11
6 -11 13 -2 41 -14 95 -26 114 -11 18 -19 21 -37 14 -21 -8 -22 -14 -20 -91 2
-91 14 -114 79 -145 25 -12 34 -22 34 -40 0 -24 -2 -25 -67 -22 -51 1 -71 6
-81 20 -17 23 -65 22 -86 -2 -9 -10 -30 -21 -46 -25 -34 -6 -50 -46 -29 -72
11 -13 55 -15 355 -12 357 4 374 6 374 48 0 17 -38 40 -65 40 -8 0 -20 12 -27
27 -27 54 -69 56 -126 3 -28 -25 -41 -30 -83 -30 -32 0 -48 4 -44 10 4 6 6 34
6 64 0 50 3 55 45 90 40 33 44 41 44 80 0 49 -17 69 -52 64 -16 -2 -24 -11
-26 -28 -7 -60 -17 -49 -22 24 -4 65 -9 81 -25 92 -18 12 -24 12 -41 0z m-74
-266 c0 -5 -4 -10 -10 -10 -5 0 -10 5 -10 10 0 6 5 10 10 10 6 0 10 -4 10 -10z"/>
<path d="M5540 2950 c-16 -31 4 -62 38 -58 19 2 28 10 30 26 7 47 -47 72 -68
32z"/>
</g>
</svg>
